<svg width="250" height="40" viewBox="0 0 844 134" fill="none" xmlns="http://www.w3.org/2000/svg">
<path fill-rule="evenodd" clip-rule="evenodd" d="M49.9783 4.34593C31.4277 8.39126 16.0394 14.936 7.8051 22.2824C2.13398 27.3427 -0.00954095 31.6339 3.19063e-05 37.9095C0.0151889 47.3329 6.42901 54.5923 21.1329 61.8278C33.0902 67.7113 45.5102 71.1833 63.0142 73.5365C72.9301 74.8701 105.771 74.8509 115.665 73.5062C147.523 69.1766 171.182 58.6592 177.647 45.9515C180.302 40.7323 180.473 34.5038 178.09 29.8516C173.262 20.4258 157.1 11.0863 136.805 5.99169C123.294 2.60115 119.684 -0.0635276 88.5418 0.00115296C60.199 0.0610423 58.1719 2.55883 49.9783 4.34593ZM253.674 2.8463C234.289 5.824 212.636 14.3546 203.692 22.5371C197.999 27.7459 196.236 31.2722 196.236 37.4576C196.236 50.1126 207.994 60.1485 231.741 67.7624C264.669 78.3205 316.622 76.9375 348.33 64.6577C355.41 61.9156 364.675 56.7244 365.164 55.2248C365.694 53.5998 343.059 53.8441 339.206 55.5042C332.722 58.2983 324.736 60.7122 316.338 62.4179C308.495 64.0101 305.186 64.2058 286.381 64.185C269.427 64.1674 263.661 63.8736 257.263 62.7037C237.042 59.0066 220.18 50.785 216.985 43.0656C215.476 39.4203 216.34 33.2541 218.814 30.0081C227.367 18.7841 254.437 10.9362 284.785 10.8827C305.437 10.8467 320.721 13.1936 335.21 18.626C342.769 21.4599 342.96 21.4871 355.096 21.4607L367.351 21.4336L365.357 19.7718C362.212 17.1511 349.977 11.2683 342.379 8.72344C338.563 7.445 330.909 5.48223 325.37 4.3611C315.564 2.37597 314.511 0.728609 285.483 0.834015C269.084 0.893904 254.771 2.67781 253.674 2.8463ZM374.93 7.11362V11.9048H392.48H410.03V42.648V73.3912H420.002H429.974V42.648V11.9048H447.524H465.074V7.11362V2.32247H420.002H374.93V7.11362ZM489.746 36.3836C472.008 55.1409 457.027 71.141 456.453 71.9395C455.459 73.3233 455.943 73.3912 466.841 73.3912H478.271L487.029 63.8376L495.787 54.2833L532.084 54.2434L568.381 54.2026L577.555 63.8464L586.729 73.4894L598.028 73.2411L609.326 72.9919L576.213 37.8568L543.099 2.72173L532.548 2.50054L521.996 2.27935L489.746 36.3836ZM590.043 10.1225C593.924 14.4129 608.587 30.5831 622.625 46.0561L648.151 74.1897H657.502H666.854L698.648 39.2047C716.134 19.9635 730.705 3.79335 731.027 3.27111C731.469 2.55563 728.9 2.32247 720.592 2.32247H709.571L684.057 31.0909C670.024 46.9137 658.127 59.7596 657.62 59.6382C657.114 59.5168 651.187 53.2939 644.45 45.8101C616.666 14.9471 606.658 3.69273 606.407 3.02597C606.26 2.63948 600.931 2.32247 594.564 2.32247H582.987L590.043 10.1225ZM749.069 37.8568V73.3912H796.535H844V68.6001V63.8089H806.506H769.013V53.4281V43.0472H806.506H844V37.8568V32.6664H806.506H769.013V22.2856V11.9048H806.506H844V7.11362V2.32247H796.535H749.069V37.8568ZM101.704 11.1214C130.988 13.533 153.066 21.6516 158.396 31.9677C159.923 34.9254 159.844 40.1678 158.221 43.5918C155.714 48.8813 144.674 55.5969 132.404 59.2964C118.032 63.6292 112.956 64.2106 89.7384 64.1818C69.3139 64.1571 67.6666 64.0413 57.911 61.9571C39.2041 57.9613 26.804 51.978 22.2139 44.7329C18.5594 38.9644 19.1793 33.5472 24.0534 28.6682C36.8531 15.8551 69.5293 8.47191 101.704 11.1214ZM550.603 35.062L558.245 43.4465L545.614 43.6653C538.667 43.7859 526.988 43.7859 519.66 43.6653L506.335 43.4465L515.324 33.4649C520.267 27.9751 526.116 21.6196 528.321 19.3414L532.329 15.1995L537.645 20.9385C540.568 24.0951 546.4 30.4505 550.603 35.062ZM373.973 101.32C368.509 102.303 362.29 105.976 359.859 109.658C358.176 112.207 357.781 113.749 357.792 117.734C357.803 121.893 358.155 123.119 360.05 125.606C361.285 127.226 363.765 129.526 365.561 130.717C368.61 132.738 369.508 133.698 379.041 133.959C388.269 134.212 389.604 133.27 392.883 131.681C396.639 129.861 400.114 126.08 400.585 123.299C400.829 121.86 400.352 121.678 395.757 121.462C391.238 121.248 390.422 121.446 388.578 123.207C385.68 125.973 382.267 127.096 378.52 126.515C373.062 125.668 370.941 122.984 370.941 116.927C370.941 114.11 371.389 112.797 372.846 111.338C376.288 107.892 384.609 107.646 388.055 110.887C389.981 112.697 398.486 113.93 400.333 112.666C402.846 110.947 396.865 104.223 391.111 102.299C387.395 101.057 378.32 100.539 373.973 101.32ZM176.825 101.872C176.532 102.164 176.293 109.351 176.293 117.843V133.281H194.641H212.989V129.687V126.094H201.023H189.057V123.299V120.504H199.427H209.798V116.911V113.317H199.427H189.057V111.321V109.325H200.624H212.191V105.854V102.382L203.217 101.864C191.547 101.191 177.501 101.195 176.825 101.872ZM264.848 101.867C264.851 102.236 267.723 105.69 271.229 109.544C274.736 113.397 277.606 116.815 277.606 117.138C277.606 117.461 274.345 121.225 270.362 125.503L263.116 133.281H270.439H277.761L281.347 129.288C283.319 127.092 285.169 125.313 285.458 125.335C285.746 125.357 287.418 127.149 289.173 129.317L292.364 133.258L299.41 133.269C303.464 133.276 306.344 132.962 306.191 132.531C306.045 132.119 302.964 128.553 299.344 124.609C295.724 120.663 292.763 117.176 292.763 116.859C292.763 116.542 295.724 113.19 299.344 109.409L305.925 102.537L298.789 102.304L291.653 102.071L288.478 105.789L285.304 109.506L282.053 105.879L278.802 102.253L271.822 101.724C267.983 101.434 264.844 101.498 264.848 101.867ZM452.045 101.872C451.752 102.164 451.513 109.351 451.513 117.843V133.281H469.861H488.209V129.687V126.094H476.243H464.277V123.299V120.504H474.647H485.018V116.911V113.317H474.647H464.277V111.321C464.277 109.473 464.557 109.325 468.066 109.321C470.149 109.318 475.356 109.084 479.633 108.801L487.411 108.285V104.812V101.34H469.994C460.414 101.34 452.337 101.579 452.045 101.872ZM541.857 101.915L538.466 102.23V117.755V133.281H556.814H575.162V129.687V126.094H563.196H551.23V123.299V120.504H562.093H572.955L572.474 118.707C572.21 117.719 571.988 116.103 571.982 115.114C571.971 113.344 571.82 113.317 561.601 113.317H551.23V111.321C551.23 109.473 551.51 109.325 555.019 109.321C557.103 109.318 562.327 109.084 566.626 108.799L574.444 108.28L574.205 105.01L573.966 101.739L559.606 101.67C551.709 101.633 543.721 101.743 541.857 101.915ZM625.759 102.065C625.572 102.251 625.42 109.386 625.42 117.919V133.433L639.978 133.139C652.708 132.883 654.999 132.635 658.213 131.162C663.654 128.669 666.373 124.659 666.722 118.612C667.097 112.108 664.796 107.437 659.722 104.4C656.218 102.303 655.774 102.245 641.115 101.989C632.855 101.844 625.945 101.879 625.759 102.065ZM651.381 111.148C652.922 112.475 653.593 113.941 653.851 116.538C654.508 123.171 651.149 125.954 642.372 126.049L638.183 126.094V117.709V109.325H643.723C648.342 109.325 649.615 109.628 651.381 111.148Z" fill="#35363A"/>
</svg>
